<svg width="24" height="24" viewBox="0 0 24 24" fill="none" xmlns="http://www.w3.org/2000/svg">
<path d="M6.00606 6C6.20487 6.00005 6.39916 6.05931 6.56407 6.1702C6.72899 6.28109 6.85703 6.43857 6.93185 6.62251C7.00666 6.80645 7.02484 7.00849 6.98406 7.2028C6.94328 7.39711 6.84539 7.57487 6.70292 7.71333L3.41187 10.9997H22.9864C23.1188 10.9978 23.2503 11.0222 23.3732 11.0715C23.4961 11.1208 23.6079 11.1941 23.7022 11.2869C23.7965 11.3798 23.8714 11.4904 23.9226 11.6124C23.9737 11.7344 24 11.8654 24 11.9976C24 12.1299 23.9737 12.2608 23.9226 12.3828C23.8714 12.5049 23.7965 12.6155 23.7022 12.7084C23.6079 12.8012 23.4961 12.8744 23.3732 12.9237C23.2503 12.9731 23.1188 12.9975 22.9864 12.9956H3.41187L6.70292 16.2819C6.79883 16.3739 6.87541 16.4841 6.92817 16.6059C6.98092 16.7278 7.00879 16.859 7.01015 16.9918C7.0115 17.1245 6.98631 17.2562 6.93605 17.3792C6.88579 17.5021 6.81147 17.6138 6.71745 17.7077C6.62342 17.8016 6.51158 17.8758 6.38848 17.926C6.26537 17.9761 6.13347 18.0013 6.00051 17.9999C5.86755 17.9986 5.73619 17.9708 5.61413 17.9181C5.49207 17.8654 5.38177 17.7889 5.28968 17.6932L0.292606 12.7032C0.105249 12.5161 0 12.2623 0 11.9976C0 11.733 0.105249 11.4792 0.292606 11.292L5.28968 6.30212C5.38282 6.20652 5.49419 6.13053 5.61724 6.07864C5.74028 6.02675 5.87249 6.00001 6.00606 6Z" fill="#182A42"/>
</svg>
