<svg width="24" height="24" viewBox="0 0 24 24" fill="none" xmlns="http://www.w3.org/2000/svg">
<g clip-path="url(#clip0_43_3175)">
<path d="M17.9902 5.99023C17.7913 5.99029 17.5969 6.04967 17.4319 6.16078C17.2668 6.27189 17.1387 6.42969 17.0639 6.614C16.989 6.79832 16.9708 7.00077 17.0116 7.19547C17.0524 7.39017 17.1504 7.56828 17.2929 7.70703L20.5859 11H0.99996C0.867448 10.9981 0.735885 11.0226 0.612917 11.072C0.489949 11.1214 0.378028 11.1948 0.283658 11.2878C0.189289 11.3809 0.114352 11.4918 0.0632047 11.614C0.012057 11.7363 -0.0142822 11.8675 -0.0142822 12C-0.0142822 12.1325 0.012057 12.2637 0.0632047 12.386C0.114352 12.5082 0.189289 12.6191 0.283658 12.7122C0.378028 12.8052 0.489949 12.8786 0.612917 12.928C0.735885 12.9774 0.867448 13.0019 0.99996 13H20.5859L17.2929 16.293C17.197 16.3851 17.1203 16.4955 17.0675 16.6176C17.0148 16.7397 16.9869 16.8712 16.9855 17.0042C16.9842 17.1373 17.0094 17.2692 17.0597 17.3924C17.1099 17.5156 17.1843 17.6275 17.2784 17.7216C17.3725 17.8156 17.4844 17.89 17.6076 17.9403C17.7307 17.9906 17.8627 18.0158 17.9957 18.0144C18.1288 18.0131 18.2602 17.9852 18.3823 17.9324C18.5045 17.8796 18.6148 17.803 18.707 17.707L23.707 12.707C23.8945 12.5195 23.9998 12.2652 23.9998 12C23.9998 11.7348 23.8945 11.4805 23.707 11.293L18.707 6.29297C18.6138 6.19717 18.5024 6.12103 18.3792 6.06903C18.2561 6.01704 18.1238 5.99024 17.9902 5.99023Z" fill="#182A42"/>
</g>
<defs>
<clipPath id="clip0_43_3175">
<rect width="24" height="24" fill="white"/>
</clipPath>
</defs>
</svg>
