<svg width="26" height="26" viewBox="0 0 26 26" fill="none" xmlns="http://www.w3.org/2000/svg">
<path d="M1.89588 3.24996C1.78821 3.24844 1.68132 3.26833 1.58141 3.30848C1.4815 3.34862 1.39056 3.40823 1.31388 3.48383C1.23721 3.55943 1.17632 3.64951 1.13477 3.74885C1.09321 3.84818 1.07181 3.95478 1.07181 4.06246C1.07181 4.17014 1.09321 4.27674 1.13477 4.37607C1.17632 4.47541 1.23721 4.56549 1.31388 4.64109C1.39056 4.71669 1.4815 4.77629 1.58141 4.81644C1.68132 4.85659 1.78821 4.87648 1.89588 4.87496H3.38864C3.78293 4.87496 4.11161 5.14738 4.18633 5.53512L4.34819 6.38147L6.09485 15.5549C6.41071 17.21 7.86891 18.4166 9.55433 18.4166H19.6958C21.3812 18.4166 22.84 17.2104 23.1552 15.5549L24.9019 6.38147C24.9243 6.26402 24.9205 6.14307 24.8908 6.02725C24.8611 5.91143 24.8062 5.80359 24.73 5.71144C24.6538 5.61929 24.5582 5.54508 24.45 5.49412C24.3419 5.44316 24.2238 5.4167 24.1042 5.41663H5.81767L5.78276 5.23149C5.5644 4.08712 4.55382 3.24996 3.38864 3.24996H1.89588ZM6.12765 7.04163H23.1224L21.5588 15.2513C21.3876 16.1502 20.6114 16.7916 19.6958 16.7916H9.55433C8.63898 16.7916 7.8633 16.1502 7.69129 15.2513V15.2502L6.12765 7.04163ZM10.8334 19.5C10.4024 19.5 9.98908 19.6712 9.68433 19.9759C9.37958 20.2807 9.20838 20.694 9.20838 21.125C9.20838 21.5559 9.37958 21.9693 9.68433 22.274C9.98908 22.5788 10.4024 22.75 10.8334 22.75C11.2644 22.75 11.6777 22.5788 11.9824 22.274C12.2872 21.9693 12.4584 21.5559 12.4584 21.125C12.4584 20.694 12.2872 20.2807 11.9824 19.9759C11.6777 19.6712 11.2644 19.5 10.8334 19.5ZM18.4167 19.5C17.9857 19.5 17.5724 19.6712 17.2677 19.9759C16.9629 20.2807 16.7917 20.694 16.7917 21.125C16.7917 21.5559 16.9629 21.9693 17.2677 22.274C17.5724 22.5788 17.9857 22.75 18.4167 22.75C18.8477 22.75 19.261 22.5788 19.5658 22.274C19.8705 21.9693 20.0417 21.5559 20.0417 21.125C20.0417 20.694 19.8705 20.2807 19.5658 19.9759C19.261 19.6712 18.8477 19.5 18.4167 19.5Z" fill="#182A42"/>
</svg>
