<svg 
    width="39" 
    height="29" 
    viewBox="0 0 69 52" 
    preserveAspectRatio="xMidYMid meet" 
    xmlns="http://www.w3.org/2000/svg"
>
    <path d="M10.3849 0H0V28.9483H10.3849V0Z" fill="#015EB7"/>
    <path d="M32.7817 0H22.3968V28.9483H32.7817V0Z" fill="#015EB7"/>
    <path d="M18.9862 0.00049568H13.7938V28.9488H18.9862V0.00049568Z" fill="#015EB7"/>
    <path d="M46.5755 0H36.1906V28.9483H46.5755V0Z" fill="#FDD602"/>
    <path d="M68.9723 0.00024784H58.5874V28.9485H68.9723V0.00024784Z" fill="#FDD602"/>
    <path d="M55.1788 0H49.9864V28.9483H55.1788V0Z" fill="#FDD602"/>
		<path d="M1.21114 38.4957C1.23085 38.8579 1.32823 39.1641 1.5032 39.4142C1.67942 39.6656 1.94831 39.8598 2.31568 39.9968C2.68194 40.1339 3.16294 40.203 3.75986 40.203C4.62793 40.203 5.24338 40.0981 5.60619 39.8872C5.96892 39.6763 6.15096 39.394 6.15096 39.0389C6.15096 38.7911 6.09182 38.5958 5.97591 38.4516C5.85882 38.3086 5.64098 38.1942 5.31877 38.1109C4.99883 38.0275 4.5399 37.9857 3.94417 37.9857H2.55331V36.9314H3.94417C4.46914 36.9314 4.87366 36.8932 5.1588 36.8158C5.44395 36.7395 5.6398 36.6276 5.74645 36.4799C5.85309 36.3333 5.90633 36.1415 5.90633 35.908C5.90633 35.547 5.736 35.2587 5.39643 35.0443C5.05679 34.8298 4.49349 34.7226 3.70999 34.7226C3.14559 34.7226 2.68893 34.7893 2.33892 34.9227C1.99001 35.0561 1.73157 35.2491 1.56579 35.5005C1.40009 35.7508 1.30153 36.0605 1.2691 36.4286H0.0544402C0.100805 35.578 0.420692 34.9072 1.01646 34.4152C1.6122 33.9231 2.51389 33.6765 3.71926 33.6765C4.49121 33.6765 5.12864 33.7743 5.63399 33.9684C6.14051 34.1626 6.51141 34.4164 6.74779 34.7309C6.98315 35.0454 7.10134 35.3933 7.10134 35.7757C7.10134 36.2511 6.95417 36.624 6.65858 36.8957C6.36417 37.1661 5.98636 37.346 5.52625 37.4329V37.4532C6.04549 37.5473 6.4789 37.7296 6.82899 38.0012C7.179 38.2717 7.35515 38.6684 7.35515 39.1903C7.35515 39.5715 7.23342 39.917 6.99006 40.2243C6.74779 40.5317 6.35836 40.7796 5.82294 40.9678C5.28861 41.1548 4.59786 41.249 3.74713 41.249C2.49072 41.249 1.56005 41.0059 0.957331 40.521C0.355786 40.0361 0.0405324 39.3618 0.013879 38.4981H1.20996L1.21114 38.4957Z"></path>
		<path d="M13.2885 33.7952C13.8773 33.7952 14.3699 33.8846 14.7651 34.0609C15.1603 34.2384 15.457 34.4897 15.6552 34.8138C15.8523 35.1379 15.9519 35.5215 15.9519 35.9635C15.9519 36.4055 15.8535 36.7773 15.6552 37.0977C15.457 37.4194 15.1603 37.672 14.7651 37.8554C14.3699 38.0401 13.8773 38.1318 13.2885 38.1318H10.5475V41.1246H9.38025V33.794H13.2885V33.7952ZM13.2584 37.0893C13.7777 37.0893 14.1566 36.9929 14.3954 36.7986C14.6353 36.6045 14.7558 36.3269 14.7558 35.9647C14.7558 35.6025 14.6353 35.3261 14.3954 35.132C14.1566 34.9377 13.7777 34.8401 13.2584 34.8401H10.5463V37.0893H13.2584Z"></path>
		<path d="M21.004 41.2463C20.1927 41.2463 19.4972 41.0961 18.9131 40.7947C18.3301 40.4933 17.8851 40.0715 17.5814 39.5295C17.2766 38.9874 17.1248 38.3488 17.1248 37.6113V37.3099C17.1248 36.5736 17.2777 35.9339 17.5814 35.3918C17.8863 34.8497 18.3301 34.4279 18.9131 34.1265C19.4961 33.8251 20.1927 33.675 21.004 33.675C21.8153 33.675 22.5293 33.8251 23.1122 34.1265C23.6953 34.4279 24.1392 34.8497 24.444 35.3918C24.7488 35.9339 24.8995 36.5736 24.8995 37.3099V37.6113C24.8995 38.3488 24.7477 38.9874 24.444 39.5295C24.138 40.0715 23.6953 40.4933 23.1122 40.7947C22.5293 41.0961 21.8258 41.2463 21.004 41.2463ZM21.0225 40.1716C21.8779 40.1716 22.5374 39.9453 23.0011 39.4937C23.4634 39.0422 23.6964 38.4084 23.6964 37.5911V37.3302C23.6964 36.5069 23.467 35.8707 23.0057 35.4215C22.5455 34.9736 21.8849 34.7484 21.0225 34.7484C20.1602 34.7484 19.4787 34.9748 19.0162 35.4263C18.5527 35.8779 18.3209 36.5128 18.3209 37.3289V37.5898C18.3209 38.4072 18.5515 39.041 19.0162 39.4925C19.4787 39.944 20.1487 40.1704 21.0225 40.1704V40.1716Z"></path>
		<path d="M30.6848 36.8985C31.5656 36.8985 32.2286 37.0891 32.6714 37.4704C33.1153 37.8516 33.3378 38.3639 33.3378 39.0073C33.3378 39.6506 33.1165 40.1724 32.6714 40.5537C32.2274 40.9349 31.5656 41.1255 30.6848 41.1255H26.7568V33.795H32.7838V34.8398H27.9124V36.8985H30.6848ZM30.6558 40.0914C31.1878 40.0914 31.5714 39.9961 31.8079 39.8055C32.0444 39.6149 32.1625 39.3456 32.1625 38.9977C32.1625 38.6498 32.0444 38.3818 31.8079 38.1948C31.5714 38.0077 31.1878 37.9135 30.6558 37.9135H27.9147V40.0926H30.6558V40.0914Z"></path>
		<path d="M36.1712 33.7952H42.3048V41.1258H41.1284V34.8603H37.2989L37.1622 38.0437C37.1425 38.8205 37.0475 39.4411 36.8748 39.9058C36.7032 40.3716 36.4725 40.7041 36.1839 40.9054C35.8953 41.1056 35.5442 41.2068 35.1293 41.2068C35.0134 41.2068 34.9033 41.1985 34.7989 41.1818C34.6958 41.1651 34.6089 41.146 34.537 41.1258V40.0416C34.5497 40.0416 34.5648 40.0429 34.5811 40.0464C34.5972 40.05 34.6123 40.0512 34.6251 40.0512C34.7677 40.0571 34.8812 40.0607 34.9647 40.0607C35.1919 40.0607 35.3773 40.0035 35.5198 39.8903C35.6624 39.776 35.776 39.5639 35.8595 39.2529C35.9429 38.942 35.9951 38.5012 36.0147 37.9329L36.1712 33.7964V33.7952Z"></path>
		<path d="M44.4982 33.795H50.3606V34.8398H45.6654V36.8985H49.9514V37.9231H45.6654V40.0724H50.5449V41.1267H44.4982V33.795Z"></path>
		<path d="M58.1566 33.7955H59.3423V41.126H58.1566V37.9927H53.4706V41.126H52.2943V33.7955H53.4706V36.9288H58.1566V33.7955Z"></path>
		<path d="M65.0747 41.2463C64.2634 41.2463 63.5681 41.0961 62.985 40.7947C62.402 40.4933 61.957 40.0715 61.6533 39.5295C61.3496 38.9874 61.1967 38.3488 61.1967 37.6113V37.3099C61.1967 36.5736 61.3496 35.9339 61.6533 35.3918C61.957 34.8497 62.402 34.4279 62.985 34.1265C63.5681 33.8251 64.2646 33.675 65.0747 33.675C65.8849 33.675 66.6 33.8251 67.1831 34.1265C67.7661 34.4279 68.2099 34.8497 68.5148 35.3918C68.8195 35.9339 68.9703 36.5736 68.9703 37.3099V37.6113C68.9703 38.3488 68.8185 38.9874 68.5148 39.5295C68.2087 40.0715 67.7661 40.4933 67.1831 40.7947C66.6 41.0961 65.8965 41.2463 65.0747 41.2463ZM65.0933 40.1716C65.9486 40.1716 66.6081 39.9453 67.0718 39.4937C67.5342 39.0422 67.7672 38.4084 67.7672 37.5911V37.3302C67.7672 36.5069 67.5377 35.8707 67.0764 35.4215C66.6163 34.9736 65.9556 34.7484 65.0933 34.7484C64.231 34.7484 63.5495 34.9748 63.0871 35.4263C62.6234 35.8779 62.3916 36.5128 62.3916 37.3289V37.5898C62.3916 38.4072 62.6222 39.041 63.0871 39.4925C63.5495 39.944 64.2194 40.1704 65.0933 40.1704V40.1716Z"></path>
		<path d="M9.87587 48.2146C10.3233 48.3016 10.7173 48.491 11.0582 48.7817C11.3977 49.0724 11.5681 49.462 11.5681 49.9516C11.5681 50.3138 11.4719 50.6415 11.276 50.9357C11.0824 51.2312 10.7788 51.4611 10.3673 51.6291C9.95472 51.7959 9.43893 51.8793 8.81657 51.8793H4.85965V44.5488H8.81657C9.36707 44.5488 9.83535 44.6321 10.2213 44.8001C10.6072 44.9669 10.8936 45.1968 11.0813 45.4876C11.2702 45.7795 11.3629 46.1082 11.3629 46.4764C11.3629 46.7909 11.2911 47.0685 11.145 47.3092C10.999 47.551 10.8135 47.744 10.5852 47.8917C10.3592 48.0383 10.1228 48.1383 9.87587 48.1932V48.2146ZM8.77715 45.5733H6.01633V47.7321H8.856C9.30221 47.7321 9.63714 47.6368 9.85734 47.4461C10.0764 47.2556 10.1865 46.9935 10.1865 46.6575C10.1865 46.3215 10.0753 46.0416 9.85153 45.8544C9.62905 45.6674 9.27087 45.5733 8.77715 45.5733ZM8.77715 50.8548C9.36016 50.8548 9.77504 50.763 10.0208 50.5784C10.2677 50.3937 10.3905 50.1256 10.3905 49.7706C10.3905 49.4358 10.2677 49.1725 10.0208 48.9819C9.77504 48.7912 9.38561 48.6959 8.85482 48.6959H6.01515V50.8548H8.77715Z"></path>
		<path d="M22.3574 44.5502H23.6799L20.6571 50.0426C20.3974 50.5239 20.1529 50.9027 19.9234 51.1767C19.694 51.4508 19.4343 51.6568 19.1457 51.7939C18.8571 51.9309 18.5025 52 18.0805 52C17.7816 52 17.4906 51.9595 17.2055 51.8796V50.8253C17.4848 50.8658 17.7271 50.886 17.9345 50.886C18.1547 50.886 18.3379 50.8574 18.4839 50.8003C18.6299 50.7431 18.7598 50.6537 18.8734 50.5298C18.9858 50.4059 19.1075 50.2272 19.2373 49.9925L16.1949 44.5502H17.5845L19.9756 48.9989L22.3574 44.5502Z"></path>
		<path d="M30.8832 51.8794L28.0436 48.1945L26.4012 49.7314V51.8806H25.2341V44.55H26.4012V48.3457L30.474 44.55H32.1175L28.9674 47.4725L32.3702 51.8806H30.8832V51.8794Z"></path>
		<path d="M37.8782 44.5499C38.4669 44.5499 38.9595 44.6392 39.3548 44.8156C39.75 44.9931 40.0467 45.2445 40.2449 45.5685C40.442 45.8926 40.5416 46.2762 40.5416 46.7183C40.5416 47.1602 40.4431 47.532 40.2449 47.8524C40.0467 48.1741 39.75 48.4267 39.3548 48.6102C38.9595 48.7948 38.4669 48.8866 37.8782 48.8866H35.1371V51.8793H33.9699V44.5488H37.8782V44.5499ZM37.848 47.8429C38.3673 47.8429 38.7463 47.7464 38.9851 47.5522C39.225 47.358 39.3455 47.0804 39.3455 46.7183C39.3455 46.3561 39.225 46.0797 38.9851 45.8854C38.7463 45.6912 38.3673 45.5936 37.848 45.5936H35.1359V47.8429H37.848Z"></path>
		<path d="M48.4858 51.8793H47.2213L46.4238 50.0422H42.9247L42.1378 51.8793H40.8837L44.0919 44.5488H45.2393L48.4858 51.8793ZM44.6644 45.8747L43.342 49.0378H46.0054L44.6644 45.8747Z"></path>
		<path d="M50.3239 43.5505C50.1941 43.6804 50.0191 43.7459 49.7989 43.7459C49.5787 43.7459 49.4037 43.6804 49.2738 43.5505C49.144 43.4207 49.0803 43.2479 49.0803 43.0334C49.0803 42.819 49.144 42.6594 49.2738 42.5318C49.4037 42.4056 49.5787 42.3412 49.7989 42.3412C50.0191 42.3412 50.1941 42.4044 50.3239 42.5318C50.4537 42.6594 50.5174 42.8274 50.5174 43.0334C50.5174 43.2395 50.4537 43.4207 50.3239 43.5505ZM51.4528 44.5501H50.2764V51.8807H51.4528V44.5501ZM52.4681 43.5505C52.3348 43.6804 52.1621 43.7459 51.9477 43.7459C51.7217 43.7459 51.5432 43.6804 51.4134 43.5505C51.2836 43.4207 51.2198 43.2479 51.2198 43.0334C51.2198 42.819 51.2836 42.6594 51.4134 42.5318C51.5432 42.4056 51.7217 42.3412 51.9477 42.3412C52.1737 42.3412 52.3441 42.4044 52.4728 42.5318C52.6026 42.6594 52.6675 42.8274 52.6675 43.0334C52.6675 43.2395 52.6014 43.4207 52.4681 43.5505Z"></path>
		<path d="M59.5505 44.5502H60.7362V51.8809H59.5505V48.7475H54.8645V51.8809H53.6881V44.5502H54.8645V47.6836H59.5505V44.5502Z"></path>
		<path d="M64.104 51.8793H62.9276V44.5488H64.104V51.8793Z"></path>
	</svg>