<svg width="12" height="11" viewBox="0 0 12 11" fill="none" xmlns="http://www.w3.org/2000/svg">
<path d="M5.43328 0.0386507C5.47025 0.0135107 5.51401 3.8517e-05 5.55882 0C5.60364 3.8517e-05 5.6474 0.0135107 5.68436 0.0386507C5.72133 0.0637907 5.74978 0.0994263 5.76597 0.140883L7.13699 3.64742L10.9065 3.83828C10.9514 3.84053 10.9945 3.85622 11.0302 3.88327C11.0659 3.91032 11.0925 3.94746 11.1066 3.98981C11.1206 4.03216 11.1213 4.07773 11.1087 4.12051C11.0961 4.16329 11.0707 4.20129 11.0359 4.22948L8.10065 6.61026L9.06474 10.2228C9.07625 10.2658 9.07439 10.3112 9.05939 10.3532C9.04439 10.3951 9.01696 10.4316 8.9807 10.4577C8.94444 10.4839 8.90104 10.4986 8.85621 10.4999C8.81137 10.5012 8.7672 10.489 8.72948 10.4649L5.55882 8.44603L2.38816 10.4649C2.35045 10.489 2.30627 10.5012 2.26144 10.4999C2.21661 10.4986 2.17321 10.4839 2.13695 10.4577C2.10069 10.4316 2.07326 10.3951 2.05826 10.3532C2.04326 10.3112 2.04139 10.2658 2.0529 10.2228L3.017 6.61026L0.081715 4.22948C0.046916 4.20129 0.0215427 4.16329 0.00893513 4.12051C-0.00367247 4.07773 -0.00292263 4.03216 0.0110875 3.98981C0.0250976 3.94746 0.0517101 3.91032 0.0874192 3.88327C0.123128 3.85622 0.166259 3.84053 0.21113 3.83828L3.98066 3.64742L5.35167 0.140883C5.36787 0.0994263 5.39632 0.0637907 5.43328 0.0386507Z" fill="#43A0FD"/>
</svg>
